<?xml version="1.0" standalone="no"?>
<!DOCTYPE svg PUBLIC "-//W3C//DTD SVG 20010904//EN"
 "http://www.w3.org/TR/2001/REC-SVG-20010904/DTD/svg10.dtd">
<svg version="1.0" xmlns="http://www.w3.org/2000/svg"
 width="1280.000000pt" height="898.000000pt" viewBox="0 0 1280.000000 898.000000"
 preserveAspectRatio="xMidYMid meet">
<metadata>
Created by potrace 1.15, written by Peter Selinger 2001-2017
</metadata>
<g transform="translate(0.000000,898.000000) scale(0.100000,-0.100000)"
fill="#000000" stroke="none">
<path d="M12352 8910 c-274 -82 -699 -200 -1342 -375 -1068 -290 -1663 -473
-2260 -693 -405 -149 -479 -185 -540 -262 -40 -51 -80 -138 -80 -177 0 -31 0
-31 -65 -38 -71 -8 -115 0 -605 108 -135 30 -328 71 -430 90 -102 20 -255 56
-340 82 -391 115 -488 137 -660 150 -47 3 -116 1 -155 -4 -66 -8 -76 -7 -170
25 -172 58 -279 76 -488 81 -373 11 -492 -26 -841 -260 -115 -77 -189 -117
-316 -172 -91 -40 -221 -98 -290 -130 -69 -31 -169 -75 -223 -97 -54 -23 -174
-88 -265 -145 -92 -56 -177 -103 -190 -103 -13 0 -143 13 -290 30 -268 30
-931 91 -1397 130 -1020 83 -1344 110 -1373 114 l-32 5 0 -3429 c0 -3257 1
-3429 18 -3434 40 -12 1209 -300 1342 -331 187 -43 363 -75 415 -75 131 0 323
177 525 485 88 134 298 560 547 1110 51 114 62 130 84 133 32 4 42 -11 93
-133 107 -253 169 -310 401 -366 44 -10 94 -19 111 -19 28 0 32 -4 37 -35 7
-46 80 -169 131 -224 52 -55 169 -133 244 -162 46 -18 82 -23 186 -26 l130 -3
31 -68 c51 -109 167 -241 249 -285 95 -50 230 -92 347 -107 97 -12 265 2 539
45 118 19 292 42 385 50 169 15 266 30 295 45 9 5 23 4 31 -1 11 -6 63 11 170
55 195 80 262 114 328 166 64 51 85 95 104 214 8 48 17 89 19 92 3 2 47 0 99
-6 409 -46 709 233 709 658 l0 87 98 2 c155 2 325 49 470 129 78 42 81 46 132
149 60 124 100 312 100 476 l0 66 63 -14 c87 -21 285 -12 391 17 106 29 216
83 277 137 146 132 202 477 124 774 -5 20 -2 27 17 36 20 9 30 4 77 -34 78
-63 184 -124 228 -130 30 -4 123 20 398 100 977 286 1563 423 2561 597 158 27
289 52 291 54 2 2 -5 248 -16 547 -38 997 -161 4314 -161 4342 0 19 -5 27 -17
26 -10 0 -123 -31 -251 -69z"/>
</g>
</svg>
