<?xml version="1.0" standalone="no"?>
<!DOCTYPE svg PUBLIC "-//W3C//DTD SVG 20010904//EN"
 "http://www.w3.org/TR/2001/REC-SVG-20010904/DTD/svg10.dtd">
<svg version="1.0" xmlns="http://www.w3.org/2000/svg"
 width="1280.000000pt" height="640.000000pt" viewBox="0 0 1280.000000 640.000000"
 preserveAspectRatio="xMidYMid meet">
<metadata>
Created by potrace 1.15, written by Peter Selinger 2001-2017
</metadata>
<g transform="translate(0.000000,640.000000) scale(0.100000,-0.100000)"
fill="#000000" stroke="none">
<path d="M6200 6179 c-265 -31 -514 -149 -712 -338 -211 -200 -353 -464 -404
-751 -23 -126 -23 -363 -1 -487 95 -528 459 -932 962 -1069 91 -25 116 -27
285 -28 160 -1 197 2 275 22 377 94 684 342 855 691 140 283 182 628 114 929
-127 564 -569 973 -1116 1032 -109 11 -150 11 -258 -1z"/>
<path d="M3260 5619 c-575 -66 -1020 -593 -1020 -1208 0 -598 399 -1100 959
-1207 99 -19 295 -19 397 1 696 132 1118 887 892 1594 -144 453 -520 770 -971
820 -108 12 -149 12 -257 0z"/>
<path d="M9760 5175 c-364 -73 -674 -346 -802 -703 -85 -239 -89 -529 -11
-765 155 -469 587 -778 1053 -754 468 25 851 353 977 836 34 132 42 337 19
477 -79 459 -409 816 -841 905 -106 22 -296 24 -395 4z"/>
<path d="M1570 3336 c-66 -15 -103 -33 -152 -78 -34 -29 -1329 -1992 -1378
-2087 -63 -121 -30 -303 73 -403 149 -145 371 -148 503 -6 52 56 1346 2039
1372 2102 76 187 -58 423 -266 472 -67 16 -80 16 -152 0z"/>
<path d="M7834 3276 c-48 -15 -123 -64 -177 -115 -96 -90 -127 -247 -74 -372
10 -25 593 -927 612 -948 2 -2 35 60 74 137 87 173 151 283 254 434 l79 117
-93 143 c-301 462 -342 520 -386 552 -87 62 -195 81 -289 52z"/>
<path d="M5500 2962 c-126 -74 -197 -129 -315 -247 -439 -440 -778 -1199 -905
-2025 -17 -112 -50 -414 -50 -462 0 -17 64 -18 1983 -18 1091 0 1986 2 1988 5
3 2 1 46 -3 97 -61 729 -301 1472 -642 1983 -184 277 -426 522 -609 616 l-38
20 -117 -40 c-167 -57 -276 -75 -462 -75 -233 0 -436 46 -657 149 l-92 43 -81
-46z"/>
<path d="M11246 2930 c-52 -20 -114 -74 -147 -126 -49 -79 -62 -201 -32 -290
19 -56 1115 -1737 1172 -1797 123 -131 336 -142 454 -23 99 99 129 278 67 397
-21 41 -1097 1684 -1137 1737 -31 41 -113 94 -169 110 -61 18 -152 14 -208 -8z"/>
<path d="M2369 2828 c-197 -222 -314 -392 -466 -678 -196 -367 -369 -865 -462
-1325 -34 -174 -67 -386 -76 -500 -4 -44 -9 -88 -11 -97 -5 -17 60 -18 1263
-18 l1269 0 12 156 c49 620 207 1220 461 1750 38 79 86 171 106 204 l36 60
-57 87 c-66 102 -191 267 -228 302 l-25 24 -68 -40 c-154 -91 -310 -154 -473
-189 -119 -26 -400 -26 -520 -1 -234 50 -474 163 -646 303 -23 19 -43 34 -46
34 -2 0 -34 -33 -69 -72z"/>
<path d="M9019 2612 c-236 -244 -468 -636 -633 -1072 l-48 -124 41 -150 c51
-189 96 -400 122 -576 20 -132 48 -398 49 -452 l0 -28 1510 0 c1205 0 1510 3
1510 13 0 6 -7 71 -15 142 -78 667 -282 1303 -579 1803 -70 118 -192 292 -253
361 l-39 45 -60 -36 c-225 -136 -445 -200 -679 -199 -307 1 -547 90 -854 318
-15 11 -25 5 -72 -45z"/>
</g>
</svg>
